<?xml version="1.0" standalone="no"?>
<!DOCTYPE svg PUBLIC "-//W3C//DTD SVG 20010904//EN"
 "http://www.w3.org/TR/2001/REC-SVG-20010904/DTD/svg10.dtd">
<svg version="1.0" xmlns="http://www.w3.org/2000/svg"
 width="1608.000000pt" height="1608.000000pt" viewBox="0 0 1608.000000 1608.000000"
 preserveAspectRatio="xMidYMid meet">
<metadata>
Created by potrace 1.14, written by Peter Selinger 2001-2017
</metadata>
<g transform="translate(0.000000,1608.000000) scale(0.100000,-0.100000)"
fill="#000000" stroke="none">
<path d="M7760 16070 c-25 -4 -50 -5 -56 -3 -7 2 -15 -1 -19 -6 -3 -6 -10 -9
-15 -6 -6 4 -76 -6 -135 -19 -5 -2 -31 -6 -57 -11 -27 -4 -48 -12 -48 -17 0
-5 -4 -7 -9 -4 -5 3 -40 -4 -78 -16 -37 -12 -72 -23 -78 -24 -5 0 -23 -6 -40
-13 -16 -6 -55 -22 -85 -34 -109 -43 -386 -189 -410 -216 -3 -3 -32 -24 -64
-46 -57 -38 -82 -58 -185 -143 -71 -59 -230 -220 -299 -302 -34 -41 -68 -82
-76 -90 -7 -8 -39 -51 -69 -95 -31 -44 -60 -84 -65 -90 -4 -5 -25 -39 -47 -75
-21 -36 -44 -72 -51 -80 -12 -14 -193 -365 -194 -375 -1 -12 -40 -98 -60 -132
-9 -16 -51 -110 -55 -123 -1 -3 -22 -49 -48 -103 -26 -55 -47 -100 -47 -102 0
-4 -105 -228 -130 -278 -11 -22 -20 -45 -20 -53 0 -8 -4 -14 -10 -14 -5 0 -10
-6 -10 -13 0 -7 -11 -37 -25 -65 -14 -29 -25 -56 -25 -62 0 -5 -4 -10 -10 -10
-5 0 -10 -6 -10 -13 0 -8 -18 -51 -40 -96 -22 -45 -40 -84 -40 -86 0 -3 -21
-49 -46 -102 -25 -54 -56 -121 -70 -150 -13 -28 -24 -57 -24 -62 0 -6 -4 -11
-10 -11 -5 0 -10 -5 -10 -11 0 -6 -14 -41 -31 -77 -17 -37 -42 -92 -56 -122
-14 -30 -39 -84 -56 -120 -17 -36 -32 -67 -32 -70 -1 -3 -15 -34 -32 -70 -17
-36 -40 -85 -51 -110 -11 -25 -39 -85 -62 -135 -23 -49 -55 -117 -70 -150 -15
-33 -43 -94 -63 -135 -74 -161 -97 -212 -97 -219 0 -5 -7 -14 -15 -21 -8 -6
-14 -15 -13 -18 1 -4 -4 -18 -12 -32 -7 -14 -13 -27 -13 -30 0 -3 -16 -39 -35
-80 -79 -172 -92 -201 -92 -210 0 -6 -4 -10 -10 -10 -5 0 -10 -5 -10 -12 0 -6
-9 -30 -19 -52 -34 -73 -75 -161 -76 -166 -1 -3 -16 -36 -33 -73 -18 -38 -32
-73 -32 -78 0 -5 -4 -9 -10 -9 -5 0 -10 -8 -10 -17 0 -10 -7 -27 -15 -37 -8
-11 -15 -28 -15 -38 0 -10 -4 -18 -10 -18 -5 0 -10 -4 -10 -10 0 -10 -27 -72
-88 -200 -101 -214 -170 -370 -164 -370 4 0 2 -4 -4 -8 -6 -4 -32 -63 -58
-132 -27 -69 -52 -132 -56 -140 -6 -13 -36 -108 -46 -145 -1 -5 -16 -57 -32
-115 -27 -96 -44 -162 -43 -175 0 -2 -5 -19 -10 -37 -13 -46 -23 -98 -23 -130
-1 -16 -4 -28 -7 -28 -5 0 -18 -73 -25 -145 -5 -49 -16 -138 -19 -157 -16 -83
-20 -360 -18 -1423 2 -1652 12 -4056 17 -4082 13 -65 68 -122 136 -140 15 -4
762 -4 1781 1 l535 2 46 27 c41 24 90 77 71 77 -5 0 -1 5 7 10 13 8 15 80 13
557 -1 301 -2 557 -2 568 -1 11 0 49 1 83 2 35 0 69 -4 75 -4 6 -4 16 0 21 5
8 6 333 1 363 -1 5 -1 13 0 18 1 6 2 55 1 110 -2 164 -9 2225 -9 2830 -1 516
1 616 13 685 2 14 7 43 10 66 4 22 11 55 16 73 5 17 9 35 9 39 4 42 63 199
107 285 13 26 21 47 17 47 -5 0 -3 4 2 8 6 4 26 41 44 82 18 41 45 100 60 130
14 30 26 57 27 60 0 3 20 46 43 95 40 83 62 131 127 272 13 28 24 57 24 62 0
6 5 11 10 11 6 0 10 5 10 11 0 7 18 50 40 96 22 47 40 87 40 89 0 2 20 45 45
96 25 51 45 98 45 105 0 7 4 13 10 13 5 0 9 3 8 8 -1 4 8 27 19 52 12 25 37
79 56 120 42 91 88 192 132 285 18 39 39 86 48 105 8 19 35 78 60 130 81 172
107 231 107 240 0 5 4 10 10 12 5 2 11 12 13 23 2 11 12 36 22 55 11 19 20 37
20 40 1 3 13 31 28 63 15 32 27 62 27 67 0 6 5 10 10 10 6 0 10 6 10 13 0 7
18 50 40 95 22 45 40 84 40 87 0 3 20 46 44 97 25 51 46 100 48 108 2 8 5 17
8 20 7 6 60 118 60 125 0 3 18 41 40 85 22 44 37 80 33 80 -5 0 -3 4 2 8 9 6
69 126 71 141 0 3 20 47 43 96 24 50 61 127 82 173 64 134 134 188 216 167 37
-9 102 -79 135 -146 94 -192 208 -436 208 -448 0 -5 3 -11 8 -13 4 -1 25 -41
46 -88 22 -47 75 -159 119 -250 43 -91 91 -190 104 -220 14 -30 57 -120 96
-200 38 -80 82 -172 97 -205 15 -33 60 -127 99 -208 39 -82 71 -153 71 -158 0
-5 4 -9 10 -9 5 0 9 -3 8 -7 -1 -5 8 -29 20 -55 12 -26 22 -52 22 -57 0 -6 4
-11 8 -11 5 0 15 -18 22 -40 7 -22 17 -40 22 -40 4 0 7 -3 6 -7 -1 -5 10 -35
26 -68 16 -33 56 -116 89 -185 33 -69 76 -161 97 -205 21 -44 62 -132 93 -195
30 -63 75 -158 99 -210 83 -174 230 -482 299 -626 21 -44 39 -86 39 -92 0 -7
5 -12 11 -12 5 0 7 -4 4 -10 -3 -5 -1 -10 4 -10 6 0 10 -3 9 -7 -1 -5 20 -53
45 -107 65 -136 107 -267 131 -406 3 -14 5 -25 6 -25 4 0 11 -107 14 -211 2
-67 6 -126 10 -133 4 -6 3 -11 -1 -11 -5 0 -7 -17 -5 -37 4 -52 4 -53 0 -96
-3 -21 -1 -40 4 -43 5 -3 5 -11 1 -17 -10 -16 -10 -78 0 -99 4 -10 4 -18 -1
-18 -9 0 -8 -53 3 -69 3 -6 3 -11 -2 -11 -9 0 -10 -87 0 -96 3 -3 3 -12 0 -19
-8 -23 -9 -79 -1 -102 4 -13 4 -23 0 -23 -9 0 -8 -53 2 -68 3 -6 3 -13 -2 -15
-4 -3 -6 -23 -4 -44 4 -51 4 -52 0 -100 -2 -24 0 -43 4 -43 4 0 4 -11 -1 -23
-5 -13 -6 -29 -1 -36 4 -7 4 -28 0 -47 -4 -19 -4 -34 0 -34 5 0 5 -13 0 -29
-4 -15 -5 -34 -1 -40 4 -7 5 -32 1 -57 -4 -24 -3 -47 1 -50 5 -2 4 -16 -1 -29
-6 -15 -6 -27 1 -30 5 -4 7 -11 4 -16 -3 -5 -6 -37 -6 -71 1 -103 0 -141 -4
-148 -2 -3 0 -12 5 -20 4 -7 4 -24 0 -36 -6 -14 -5 -26 0 -29 6 -4 7 -13 1
-24 -5 -9 -6 -23 -1 -31 4 -7 4 -23 0 -36 -5 -12 -7 -24 -4 -27 9 -8 9 -157 1
-157 -5 0 -5 -4 -2 -10 6 -9 9 -94 5 -115 -1 -5 -2 -14 -1 -19 5 -25 3 -167
-2 -172 -3 -3 -2 -16 3 -29 5 -13 7 -25 5 -27 -6 -6 -9 -186 -5 -338 1 -25 2
-569 3 -1210 l2 -1165 23 -40 c22 -39 78 -85 111 -93 9 -2 527 -4 1152 -4 791
0 1148 4 1177 11 53 15 106 69 121 123 9 33 10 673 7 2663 -3 1441 -7 2640
-10 2665 -4 46 -15 163 -21 235 -2 22 -4 40 -5 40 -1 0 -3 14 -5 30 -13 99
-20 140 -35 220 -6 28 -12 61 -15 75 -3 14 -8 39 -12 55 -4 17 -7 32 -8 35 -5
24 -19 86 -20 90 -1 3 -6 20 -10 38 -4 18 -12 35 -16 38 -5 3 -7 9 -4 14 3 4
-6 41 -19 81 -13 41 -22 77 -19 81 2 5 -1 8 -6 8 -6 0 -11 8 -11 19 0 10 -8
36 -17 57 -10 22 -18 44 -19 49 0 6 -6 21 -11 35 -6 14 -24 59 -41 100 -17 41
-47 111 -68 155 -21 44 -38 82 -39 85 -1 5 -32 71 -135 285 -154 321 -187 390
-188 397 -1 5 -19 41 -39 80 -21 40 -38 75 -38 78 -1 3 -14 32 -30 65 -16 33
-28 63 -27 68 1 4 -3 7 -8 7 -6 0 -10 4 -10 10 0 5 -23 56 -51 112 -28 57 -51
105 -51 108 0 3 -19 43 -41 90 -23 47 -40 88 -39 93 1 4 -3 7 -8 7 -6 0 -10 5
-10 10 0 6 -22 57 -50 113 -27 57 -50 108 -50 114 0 6 -7 16 -15 23 -8 6 -13
15 -12 18 1 4 -20 52 -47 107 -27 55 -68 141 -91 190 -58 122 -138 291 -190
400 -24 50 -65 135 -91 190 -26 55 -76 161 -112 235 -107 223 -126 265 -124
273 1 4 -3 7 -8 7 -6 0 -10 9 -10 20 0 11 -4 20 -10 20 -5 0 -10 5 -10 11 0 6
-19 50 -41 98 -23 47 -61 127 -84 176 -23 50 -61 127 -83 172 -22 45 -38 84
-34 87 3 3 0 6 -6 6 -7 0 -12 4 -12 9 0 5 -26 65 -59 133 -141 296 -168 352
-246 513 -71 145 -108 213 -178 330 -41 67 -179 264 -212 301 -5 7 -26 31 -45
55 -44 54 -174 192 -219 233 -19 17 -46 42 -61 56 -14 14 -46 41 -70 60 -24
19 -58 47 -76 63 -17 15 -36 27 -42 27 -6 0 -12 4 -14 9 -4 11 -186 129 -262
169 -140 76 -398 179 -489 198 -10 2 -26 5 -35 8 -9 3 -32 8 -51 11 -19 3 -38
8 -43 11 -5 4 -22 7 -36 9 -33 3 -117 15 -157 21 -51 9 -408 12 -455 4z"/>
<path d="M6867 9045 c-45 -13 -99 -59 -121 -104 -15 -32 -16 -251 -13 -3035 2
-1651 7 -3021 11 -3046 7 -43 25 -173 30 -215 4 -28 21 -114 32 -158 3 -12 7
-31 8 -42 2 -11 6 -27 10 -35 3 -8 7 -26 10 -40 2 -14 14 -54 25 -89 11 -36
18 -68 15 -73 -3 -4 -1 -8 4 -8 5 0 12 -14 16 -31 3 -17 12 -45 20 -62 28 -64
69 -172 69 -184 0 -7 4 -13 9 -13 4 0 8 -5 8 -11 0 -27 162 -335 185 -351 5
-4 7 -8 3 -8 -12 0 135 -218 231 -341 11 -14 31 -37 43 -51 13 -14 46 -52 73
-83 100 -116 312 -315 410 -387 5 -4 33 -25 60 -46 78 -60 276 -187 286 -184
5 1 9 -2 9 -7 0 -5 17 -17 38 -28 20 -10 78 -40 127 -65 97 -50 260 -125 277
-128 4 0 24 -8 45 -16 20 -9 44 -17 52 -19 9 -2 43 -14 76 -25 33 -12 67 -24
75 -26 8 -2 58 -15 110 -29 146 -39 296 -68 398 -76 17 -2 32 -6 32 -9 0 -10
115 -12 1532 -16 1414 -5 1438 -4 1476 15 38 19 80 65 97 106 10 25 13 2325 3
2332 -5 2 -8 13 -8 24 0 10 -4 19 -10 19 -5 0 -10 5 -10 10 0 16 -31 45 -70
66 -34 18 -87 19 -1355 20 -726 0 -1340 5 -1365 9 -25 4 -52 9 -60 10 -21 3
-65 21 -130 53 -108 53 -256 231 -275 331 -2 12 -6 25 -9 29 -3 5 -8 31 -12
58 -4 27 -7 1350 -8 2939 -1 2665 -2 2892 -18 2920 -24 46 -65 83 -106 96 -47
16 -2280 19 -2335 4z"/>
</g>
</svg>
