<?xml version="1.0" standalone="no"?>
<!DOCTYPE svg PUBLIC "-//W3C//DTD SVG 20010904//EN"
 "http://www.w3.org/TR/2001/REC-SVG-20010904/DTD/svg10.dtd">
<svg version="1.0" xmlns="http://www.w3.org/2000/svg"
 width="138.000000pt" height="138.000000pt" viewBox="0 0 138.000000 138.000000"
 preserveAspectRatio="xMidYMid meet">
<metadata>
Created by potrace 1.11, written by Peter Selinger 2001-2013
</metadata>
<g transform="translate(0.000000,138.000000) scale(0.100000,-0.100000)"
fill="#000000" stroke="none">
<path d="M614 1364 c-98 -20 -162 -64 -190 -130 -28 -67 -5 -137 55 -169 34
-17 71 -20 71 -5 0 6 -7 10 -15 10 -29 0 -64 23 -78 53 -37 76 23 168 131 203
86 27 181 21 269 -17 77 -33 79 -38 25 -65 -59 -30 -140 -107 -211 -204 l-56
-76 -40 7 c-210 37 -380 7 -459 -81 -98 -109 -59 -269 73 -299 128 -30 244 46
386 252 l60 86 55 -6 c30 -4 72 -7 93 -7 l38 0 -7 -36 c-18 -86 -2 -158 41
-186 34 -22 44 -10 16 20 -29 31 -38 97 -21 164 9 41 17 53 40 62 34 14 60 40
41 40 -7 0 -21 -5 -32 -10 -10 -6 -19 -8 -19 -4 0 14 81 153 134 228 30 44 53
83 50 88 -4 5 -26 7 -51 3 -40 -5 -55 -1 -112 29 -105 55 -191 70 -287 50z
m395 -123 c-59 -81 -113 -167 -143 -227 l-36 -72 -76 4 c-43 1 -81 7 -87 13
-12 12 44 92 128 180 68 71 144 116 182 106 16 -4 22 -2 18 5 -3 5 1 10 11 10
14 0 15 -2 3 -19z m-464 -295 c11 -3 28 -5 38 -5 14 -1 8 -16 -34 -78 -109
-163 -176 -223 -268 -245 -121 -28 -211 62 -179 179 30 110 147 166 328 157
52 -2 104 -6 115 -8z"/>
<path d="M1132 765 c-64 -30 -121 -91 -203 -215 -38 -58 -74 -111 -80 -118
-20 -24 -141 4 -198 46 -112 83 -42 236 101 219 49 -6 67 6 26 17 -70 18 -161
-9 -194 -59 -25 -38 -29 -97 -9 -139 30 -63 122 -115 210 -118 l44 -2 -21 -36
c-25 -40 -100 -150 -103 -150 -1 0 -24 10 -51 22 -157 69 -282 57 -341 -32
-28 -41 -29 -85 -3 -127 54 -89 195 -86 315 7 28 21 60 50 72 64 l22 25 53
-27 c209 -109 306 -126 371 -66 37 34 34 50 -6 25 -46 -28 -86 -33 -149 -16
-78 20 -249 105 -240 119 127 195 128 196 180 196 58 0 195 52 257 98 84 61
121 112 129 174 11 94 -80 141 -182 93z m128 -26 c16 -11 23 -24 22 -46 -2
-75 -75 -159 -187 -214 -64 -31 -188 -62 -193 -47 -5 12 119 196 163 241 46
48 77 68 118 77 41 9 49 7 77 -11z m-725 -500 c60 -15 145 -50 145 -59 0 -15
-100 -98 -143 -119 -55 -27 -122 -27 -165 -1 -73 45 -63 128 20 169 48 23 83
26 143 10z"/>
</g>
</svg>
