<?xml version="1.0" standalone="no"?>
<!DOCTYPE svg PUBLIC "-//W3C//DTD SVG 20010904//EN"
 "http://www.w3.org/TR/2001/REC-SVG-20010904/DTD/svg10.dtd">
<svg version="1.0" xmlns="http://www.w3.org/2000/svg"
 width="258.000000pt" height="258.000000pt" viewBox="0 0 258.000000 258.000000"
 preserveAspectRatio="xMidYMid meet">
<metadata>
Created by potrace 1.11, written by Peter Selinger 2001-2013
</metadata>
<g transform="translate(0.000000,258.000000) scale(0.100000,-0.100000)"
fill="#000000" stroke="none">
<path d="M960 2444 c-179 -75 -382 -159 -452 -187 -126 -51 -128 -53 -147 -97
-11 -25 -96 -231 -190 -458 l-171 -413 44 -107 c94 -223 323 -778 327 -790 2
-7 119 -60 259 -118 140 -58 264 -109 275 -114 11 -5 102 -43 202 -85 196 -80
184 -78 268 -40 16 8 210 88 429 178 l399 165 42 103 c23 57 108 263 189 457
l146 352 -109 263 c-60 144 -141 340 -181 436 -88 214 -91 221 -100 221 -7 0
-332 133 -731 300 -92 39 -169 70 -170 69 -2 0 -150 -61 -329 -135z"/>
</g>
</svg>
