<svg xmlns="http://www.w3.org/2000/svg" viewBox="0 0 26.45 26.45"><title>logo</title><g id="Layer_2" data-name="Layer 2"><g id="Layer_1-2" data-name="Layer 1"><path d="M14.41,17l-1.54.26-1.18-1.85L7.78,16l-.52,2.15-1.49.25L8,9.48l1.35-.23ZM9,11.1l-.86,3.56,2.85-.48Z"/><path d="M14.67,8.41l1.46-.24,1.17,7,4.35-.73.22,1.33-5.8,1Z"/><path d="M13.22,26.45A13.22,13.22,0,1,1,26.27,11h0A13.25,13.25,0,0,1,15.42,26.27,13.79,13.79,0,0,1,13.22,26.45Zm0-25a11,11,0,0,0-2,.17,11.74,11.74,0,1,0,2-.17Z"/></g></g></svg>