<svg xmlns="http://www.w3.org/2000/svg" viewBox="0 0 53.87 53.87"><defs><style>.logo-background{fill: inherit;}.logo-text{fill:#fff;}</style></defs><g id="Layer_2" data-name="Layer 2"><g id="Layer_1-2" data-name="Layer 1"><circle class="logo-background" cx="26.94" cy="26.94" r="26.94"/><path class="logo-text" d="M23.29,16.88c0,.11-.15.19-.34.19a3.08,3.08,0,0,1-3.14-3c0-2.78,3-4.93,7-4.93a12.07,12.07,0,0,1,6.81,2.39,8.32,8.32,0,0,1,2.1-.28c.38,0,.49.19.49.32A.69.69,0,0,1,36,12a31.23,31.23,0,0,0-4.65,7.58,5.58,5.58,0,0,0,1.23-.64.56.56,0,0,1,.28-.12A.16.16,0,0,1,33,19c0,.1-.1.21-.25.32a5.63,5.63,0,0,1-1.67.89,9.46,9.46,0,0,0-.64,3.17A2.92,2.92,0,0,0,31.63,26c.15.08.25.12.25.23s-.13.13-.23.13a.72.72,0,0,1-.34-.09,3,3,0,0,1-1.63-3,9.55,9.55,0,0,1,.56-2.9,10,10,0,0,1-1.39.08,23,23,0,0,1-3.53-.4c-2.86,4.31-5.64,8.69-9.89,8.72a4.13,4.13,0,0,1-4.34-4.11c0-4.25,4.13-5.94,8.51-5.94a31.89,31.89,0,0,1,5.36.62c2.22-3.31,4.61-6.56,8.06-7.69A12,12,0,0,0,27,9.75c-3.57,0-6.39,1.92-6.39,4.5a2.45,2.45,0,0,0,2.5,2.48C23.27,16.73,23.29,16.82,23.29,16.88ZM24.57,20a28.85,28.85,0,0,0-4.95-.56c-4,0-7.8,1.44-7.8,5.3a3.4,3.4,0,0,0,3.61,3.49C19.34,28.19,21.84,24.1,24.57,20Zm5.88-.19a28.52,28.52,0,0,1,4.94-8,6.14,6.14,0,0,0-1.24.12l.13.09a.25.25,0,0,1,.12.17.25.25,0,0,1-.21.21.6.6,0,0,1-.26-.12L33.59,12c-3.25.88-5.6,4.1-7.86,7.48a19.74,19.74,0,0,0,3.25.36A8.35,8.35,0,0,0,30.45,19.77Z"/><path class="logo-text" d="M42.37,26.16c0,3.31-5.12,7.09-11.11,7.35a51.44,51.44,0,0,1-3.42,5.06C30.77,40,33.63,41.65,36,41.65a4.38,4.38,0,0,0,2.64-1.22.29.29,0,0,1,.2.19,3.64,3.64,0,0,1-2.93,1.75c-2.41,0-5.43-1.79-8.48-3.26-2,2.37-4.23,4.06-6.93,4.06-2,0-3.65-1.14-3.65-3.17s2.2-3.5,4.34-3.5a14.94,14.94,0,0,1,6,1.73,46.36,46.36,0,0,0,3.16-4.7c-4.42-.09-6.77-2.2-6.77-4.53s2.29-3.59,4-3.59c1.24,0,2,.4,2,.51a.24.24,0,0,1-.19.24,4.88,4.88,0,0,0-1.71-.32,3.31,3.31,0,0,0-3.27,3.05c0,2.2,2.07,3.93,6.39,4,2.8-4.55,5.45-9,8.93-9C41.35,23.85,42.37,24.72,42.37,26.16ZM26.73,38.78a14.29,14.29,0,0,0-5.68-1.64c-1.65,0-3.51,1.15-3.51,2.86a2.79,2.79,0,0,0,3,2.5C22.91,42.5,24.92,41,26.73,38.78Zm4.94-5.91c5.17-.28,10-3.72,10-6.86a1.63,1.63,0,0,0-1.8-1.54C36.8,24.47,34.32,28.53,31.67,32.87Z"/></g></g></svg>