<svg xmlns="http://www.w3.org/2000/svg" viewBox="0 0 33.99 34.4"><defs><style>.cls-1{fill:none;stroke:#000;stroke-miterlimit:10;}.cls-2{opacity:0.5;}</style></defs><title>turtle</title><g id="Layer_2" data-name="Layer 2"><g id="Layer_1-2" data-name="Layer 1"><path d="M17.3,8.4a12,12,0,1,1-12,12,12,12,0,0,1,12-12m0-1a13,13,0,1,0,13,13,13,13,0,0,0-13-13Z"/><path class="cls-1" d="M10.26,26.4a5,5,0,0,0,8,0"/><path class="cls-1" d="M15.26,26.4a5,5,0,0,0,8,0"/><path class="cls-1" d="M14.14,28.32a1.74,1.74,0,0,0,.35.68,3,3,0,0,0,4.88,0,1.74,1.74,0,0,0,.37-.62"/><path class="cls-1" d="M7.63,21.4a5,5,0,0,0,8,0"/><path class="cls-1" d="M18.63,21.4a5,5,0,0,0,8,0"/><path class="cls-1" d="M11.73,8.86,8,.91A42,42,0,0,0,3,8.4,19.51,19.51,0,0,0,1.13,14,7.31,7.31,0,0,0,1,15c0,.24,0,.38,0,.38a7,7,0,0,0,3.78,6.22"/><path class="cls-1" d="M3,14.31a4.91,4.91,0,0,0-.09.77c0,.17,0,.27,0,.27a5.06,5.06,0,0,0,2,4"/><path class="cls-1" d="M10.27,9.85,7.94,4.91a30,30,0,0,0-3.6,5.4,14.15,14.15,0,0,0-1.34,4"/><path class="cls-1" d="M23.63,9.8l2.31-4.89a30,30,0,0,1,3.6,5.4,14.15,14.15,0,0,1,1.34,4,4.91,4.91,0,0,1,.09.77c0,.17,0,.27,0,.27a5.07,5.07,0,0,1-1.48,3.57"/><path class="cls-1" d="M22.18,9,26,.91A42,42,0,0,1,31,8.4,19.74,19.74,0,0,1,32.84,14,7.31,7.31,0,0,1,33,15c0,.24,0,.38,0,.38a7,7,0,0,1-3.52,6.07"/><path class="cls-1" d="M.63,25.4a5,5,0,0,1,8,0"/><path class="cls-1" d="M2,26.06a3.26,3.26,0,0,1,2.62-1.32,3.29,3.29,0,0,1,2.63,1.32"/><path class="cls-1" d="M33.59,25.4a5,5,0,0,0-8,0"/><path class="cls-1" d="M32.24,26.06a3.29,3.29,0,0,0-2.63-1.32A3.26,3.26,0,0,0,27,26.06"/><line class="cls-1" x1="17.3" y1="7.9" x2="17.3" y2="12.9"/><line class="cls-1" x1="19.3" y1="8.4" x2="19.3" y2="10.4"/><line class="cls-1" x1="15.3" y1="8.4" x2="15.3" y2="10.4"/><path class="cls-2" d="M32,16.4s0-.13,0-.37A7.31,7.31,0,0,0,31.84,15,19.74,19.74,0,0,0,30,9.41a41.72,41.72,0,0,0-5-7.48L21.43,9.46A13,13,0,0,0,16.3,8.41a12.8,12.8,0,0,0-5.63,1.3L7,1.93A41.72,41.72,0,0,0,2,9.41,19.42,19.42,0,0,0,.15,15,7.31,7.31,0,0,0,0,16c0,.24,0,.37,0,.37a7,7,0,0,0,3.36,6,13,13,0,0,0,25.91-.43A7,7,0,0,0,32,16.4Z"/></g></g></svg>