<?xml version="1.0" encoding="UTF-8"?><svg id="Layer_2" xmlns="http://www.w3.org/2000/svg" xmlns:xlink="http://www.w3.org/1999/xlink" viewBox="0 0 701.35 701.35"><defs><style>.cls-1,.cls-2,.cls-3,.cls-4,.cls-5,.cls-6{fill:none;}.cls-7{fill:url(#linear-gradient);}.cls-8{clip-path:url(#clippath);}.cls-9{fill:#f7bdbc;}.cls-10{fill:#f5aa71;}.cls-11{fill:#f74100;}.cls-12{fill:#fff;}.cls-13{fill:#805433;}.cls-14{fill:#66594c;}.cls-15{fill:#33142e;}.cls-16{fill:#cc8752;}.cls-17{fill:#e16662;}.cls-18{fill:#203314;}.cls-19{fill:#201f21;}.cls-20{fill:#1a1818;}.cls-21{fill:#2e4c1e;}.cls-22{fill:#312f32;}.cls-2{stroke:#312f32;}.cls-2,.cls-3,.cls-4,.cls-5,.cls-6{stroke-linecap:round;stroke-miterlimit:10;stroke-width:7px;}.cls-3{stroke:#cc8752;}.cls-4{stroke:#ffd400;}.cls-5{stroke:#f5aa71;}.cls-6{stroke:#33142e;}.cls-23{fill:url(#linear-gradient-2);}</style><clipPath id="clippath"><circle id="Clip" class="cls-1" cx="350.67" cy="350.67" r="350.67"/></clipPath><linearGradient id="linear-gradient" x1="214.91" y1="273.07" x2="335.1" y2="273.07" gradientUnits="userSpaceOnUse"><stop offset="0" stop-color="#201f21" stop-opacity="0"/><stop offset=".45" stop-color="#201f21"/></linearGradient><linearGradient id="linear-gradient-2" x1="384.47" y1="279.25" x2="504.28" y2="279.25" gradientUnits="userSpaceOnUse"><stop offset=".65" stop-color="#201f21"/><stop offset="1" stop-color="#201f21" stop-opacity="0"/></linearGradient></defs><g id="Layer_1-2"><g><circle id="BKG" class="cls-11" cx="350.67" cy="350.67" r="350.67"/><g id="Alex"><g class="cls-8"><g id="Alex-2"><g id="HAir"><path class="cls-22" d="M623.88,461.58s.98-413.87-266.25-413.87c-251.63,0-265.86,413.87-265.86,413.87-8.4,66.14,38.32,125.17,99.06,125.17h333.98c60.74,0,107.46-59.03,99.06-125.17Z"/><path class="cls-19" d="M154.94,265.1c21.73-85.29,109.55-171.27,193.35-199.92l.53-17.47c-119.75,1.1-185.25,98.8-219.99,197.75-36.39,103.66-40.2,204.51-40.2,204.51-8.25,64.97,43.33,127.25,103,127.25h8.18c-30.31-22.09-90.97-131.17-44.86-312.12Z"/><path class="cls-2" d="M116.52,465.53c5.04,60.16,28.08,101.39,83.28,111.69"/><path class="cls-19" d="M167.91,270.17s26.14-107.27,63.14-140.44c38.68-34.68,130.68-56.88,130.68-56.88,0,0-82.75,134.88-193.83,197.33Z"/></g><g id="Shirt"><path class="cls-21" d="M661.86,722.31H51.23v-2.24c0-50.73,30.4-96.52,77.15-116.2l217.45-91.57,236.02,92.65c48.27,18.95,80.01,65.52,80.01,117.37h0Z"/><path class="cls-18" d="M51.23,722.31v-2.24c0-50.73,30.4-96.52,77.15-116.2l217.45-91.57-.07,141.07,14.94,15.74-4.67,5.58c-3.56,4.26,.06,10.65,5.54,9.78l2.7-.43-8.8,9.58c-5.5,5.99-5.51,15.2,0,21.19l6.91,7.52H51.23Z"/></g><g id="Ear"><path class="cls-13" d="M539.37,304.4l-15.46-5.17-26.09,78.05,10.38,3.47c-.43,1.31-.72,2.69-.81,4.13-.55,9.04,6.33,16.81,15.37,17.36,8.38,.51,15.66-5.37,17.12-13.42l16.69-49.95c4.77-14.27-2.93-29.71-17.2-34.48Z"/><path class="cls-4" d="M529.09,379.73c3.89,.24,6.54,8.6,5.93,18.68s-4.26,18.06-8.15,17.82-6.54-8.6-5.93-18.68"/><path class="cls-13" d="M529.21,401.35s-4.19,1.04-6.45,.9c-9.04-.55-15.92-8.32-15.37-17.36l19.17,1.17,2.65,15.3Z"/></g><g id="Shine_HAir"><polygon class="cls-22" points="524.5 321.82 581.38 455.62 568.36 274.41 530.07 273.67 524.5 321.82"/><path class="cls-14" d="M550.12,267s-22.66-95.86-54.74-125.51c-33.53-30.99-104.17-46.02-104.17-46.02,0,0,62.62,115.73,158.91,171.52Z"/><path class="cls-14" d="M563.09,262c-21.73-84.11-88.08-153.25-171.87-181.5l-.18-31.59c106,11.84,165.6,102.23,198.17,193.73,36.39,102.23,40.2,201.69,40.2,201.69,8.25,64.07-43.33,125.49-103,125.49h-8.18c30.31-21.78,90.97-129.36,44.86-307.81Z"/><path class="cls-2" d="M594.58,459.67c-5.04,59.33-28.08,99.99-83.28,110.14"/></g><g id="Neck"><path class="cls-16" d="M440.7,529.74v-66.99h-168.31v66.99c0,14.32-9.03,27.14-21.7,32.12-6.93,2.73-11.63,9.22-11.63,16.67v.32c0,21.83,13.64,40.48,32.87,47.88,17.93,6.9,35.03,15.8,50.43,27.28l11.93,8.89c10.42,7.77,24.57,8.27,35.51,1.24l21.68-13.92c15.01-9.64,31.28-17.06,48.13-22.92,20.05-6.97,34.44-26.03,34.44-48.45h0c0-7.99-4.88-15.17-12.31-18.12-12.32-4.9-21.03-16.93-21.03-30.99Z"/></g><path id="Face" class="cls-10" d="M474.02,475.29l-73.29,60.54c-7.03,4.6-15.36,6.81-23.74,6.3l-64.74-3.94c-8.39-.51-16.38-3.71-22.8-9.13l-65.41-68.98c-20.53-27.16-31.62-60.29-31.57-94.34l.12-82.24c.04-27.29,16.05-51.93,40.83-63.38,80.98-37.42,137.27-103.47,137.27-103.47,0,0,71.13,79.74,128.02,120.18,20.43,14.52,31.33,38.99,28.33,63.87l-10.23,84.77c-4.08,33.8-19.1,65.34-42.78,89.81Z"/><g id="Left_Eye"><path class="cls-12" d="M320.06,322.94s-.84,2.63-3.43,2.7c-11.65,.33-15.24,1.76-33.93,3.52-20.82,1.96-32.72-16.7-32.72-16.7,0,0,18.01-9.12,37.37-6.23,19.36,2.89,32.72,16.7,32.72,16.7Z"/><path class="cls-20" d="M270.35,306.37c-1.23,2.4-1.99,5.09-2.17,7.96-.33,5.39,1.49,10.42,4.72,14.25,3,.66,6.27,.93,9.79,.6,11.44-1.08,17.22-2.03,22.66-2.69,1.82-2.82,2.96-6.12,3.18-9.7,.05-.89,.04-1.78-.02-2.65-5.54-3.34-12.79-6.64-21.17-7.89-5.95-.89-11.78-.64-16.99,.13Z"/><path class="cls-20" d="M325.19,325.05c.46-.05,.69-.59,.4-.95-3.22-4-17.24-20.91-36-26.65-8.51-2.6-21.76-2.27-27.88-.78-9.89,2.41-20.15,3.97-29.03-.24-1-.48-2.08,.48-1.71,1.53h0c3.85,10.46,13.41,13.99,19.88,16,.15,.05,.31,.03,.45-.05,1.79-.96,14.46-7.42,30.73-6.43,1.48,.09,2.97,.24,4.47,.47,18.14,2.71,33.48,15.64,35.33,17.26,.12,.11,.28,.16,.44,.14l2.91-.3Z"/><path class="cls-16" d="M246.46,292.31c-3.46,.99-5.39-3.91-2.17-5.51,3.44-1.72,8.07-3,14.27-3.15,9.45-.23,18.99,3.16,26.48,6.86,1.35,.66,.51,2.69-.92,2.22-7.16-2.36-15.81-4.2-23.77-3.13-6.24,.84-10.62,1.78-13.89,2.72Z"/><path class="cls-3" d="M276.51,338.55s6.19,1.88,16.41-.05c10.23-1.93,15.2-5.92,15.2-5.92"/><circle class="cls-12" cx="296.75" cy="313.7" r="4.13"/></g><g id="Right_Eye"><path class="cls-12" d="M395.3,328.41s.52,2.71,3.08,3.1c11.52,1.74,14.91,3.6,33.26,7.61,20.43,4.47,34.51-12.61,34.51-12.61,0,0-16.77-11.24-36.34-10.71-19.56,.53-34.51,12.61-34.51,12.61Z"/><path class="cls-20" d="M446.66,317.98c.93,2.53,1.36,5.3,1.19,8.16-.33,5.39-2.75,10.16-6.41,13.57-3.06,.29-6.33,.16-9.79-.59-11.22-2.46-16.85-4.1-22.16-5.41-1.46-3.02-2.19-6.43-1.98-10.02,.05-.89,.17-1.77,.34-2.63,5.9-2.64,13.5-5.04,21.97-5.27,6.02-.16,11.77,.79,16.85,2.19Z"/><path class="cls-20" d="M389.95,329.88c-.45-.1-.61-.67-.28-.99,3.68-3.58,19.65-18.67,38.96-22.08,8.76-1.55,21.88,.38,27.77,2.6,9.52,3.59,19.52,6.38,28.85,3.28,1.05-.35,2.01,.73,1.51,1.72h0c-5.09,9.92-15,12.26-21.68,13.47-.16,.03-.31,0-.44-.1-1.66-1.17-13.45-9.12-29.72-10.11-1.48-.09-2.97-.12-4.49-.08-18.33,.49-35.13,11.47-37.16,12.84-.13,.09-.3,.12-.46,.08l-2.86-.65Z"/><path class="cls-16" d="M468.09,307.03c3.31,1.41,5.84-3.2,2.84-5.2-3.2-2.13-7.63-3.98-13.76-4.91-9.35-1.41-19.23,.77-27.13,3.51-1.42,.49-.84,2.6,.63,2.31,7.39-1.45,16.21-2.2,23.97-.14,6.08,1.61,10.31,3.09,13.45,4.43Z"/><circle class="cls-12" cx="436.2" cy="323.08" r="4.13"/><path class="cls-3" d="M431.66,349.2s-6.37,1.12-16.29-2.04-14.37-7.72-14.37-7.72"/></g><path id="Left_Eyebrow" class="cls-7" d="M330.13,285.14l4.53-7.63c1.05-1.77,.14-4.06-1.84-4.62-13.48-3.82-58.97-15.86-91.46-13.93-12.13,.72-21.39,5.3-26.09,8.16-.7,.43-.27,1.51,.54,1.33,8.95-2.07,31.08-6.14,45.65,.25,18.06,7.93,43.62,16.96,64.34,18.66,1.76,.14,3.44-.72,4.34-2.23Z"/><path id="Right_Eyebrow" class="cls-23" d="M387.78,284.7l-3.11-8.31c-.72-1.93,.58-4.02,2.63-4.22,13.94-1.39,60.84-5.2,92.48,2.43,11.81,2.85,20.12,8.99,24.24,12.64,.62,.55,0,1.54-.76,1.21-8.44-3.62-29.51-11.53-44.98-7.81-19.18,4.61-45.93,8.99-66.62,7.02-1.75-.17-3.26-1.31-3.88-2.96Z"/><path class="cls-3" d="M343.34,431.63c4.43,2.12,9.44,2.64,14.19,1.51"/><path id="Nose" class="cls-3" d="M391.21,394.24l-.78,12.82c-.32,5.32-4.9,9.37-10.22,9.05l-7.34-.45-9.69,5.12c-7.15,3.78-15.82,3.19-22.4-1.51,0,0-8.51-6.08-8.51-6.08l-6.63-.4c-5.32-.32-9.37-4.9-9.05-10.22l.78-12.82"/><path id="Nosering" class="cls-4" d="M317.11,415.85c-.75-1.5-1.13-3.21-1.02-5.01,.33-5.45,5.02-9.6,10.46-9.26"/><line class="cls-3" x1="415.11" y1="422.65" x2="402.09" y2="404.12"/><path class="cls-3" d="M340.69,308.28l1.23,4.68c2.56,9.72,2.4,19.87-.33,29.39"/><path class="cls-3" d="M378.52,304.81l-1.51,4.6c-3.15,9.55-3.61,19.69-1.45,29.35"/><ellipse class="cls-9" cx="354.96" cy="391.72" rx="5.77" ry="11.74" transform="translate(-57.6 722.23) rotate(-86.52)"/><line class="cls-3" x1="433.04" y1="443.29" x2="432.59" y2="450.68"/><line class="cls-5" x1="370.2" y1="129.28" x2="372.74" y2="87.55"/><g id="Mouth"><path class="cls-17" d="M361.73,497.15l-25.22-1.59c-25.73-1.57-63.38-52.72-63.38-52.72-.94-2.99,1.04-6.21,3.72-6.05l146.58,8.92c2.4,.15,3.98,2.96,3.22,5.72,0,0-39.72,47.26-64.92,45.72Z"/><path class="cls-12" d="M422.99,450.55l-149.27-10.5,19.88,12.74s10.28,23.7,55.68,26.46c40.02,2.44,41.28-15.85,52.6-21.78,11.32-5.93,24.62-3.43,24.62-3.43,.78-2.99-1.09-3.34-3.51-3.49Z"/><path id="Lip_-_Top" class="cls-17" d="M328.25,437.1l23.36,4.24,19.46-1.41c7.1-.51,14.33-.32,21.41,.76,11.05,1.68,33.47,7.11,33.47,7.11,1.9,1.06,.78,3.07-1.62,2.92l-45.62,2.22c-6.5-.4-13.01-.28-19.41,.34l-3.98,.38c-4.42,.43-8.96,.18-13.31-.74l-6.05-1.27c-5.87-1.23-11.87-2.04-17.91-2.4l-42.49-9.7c-2.2-.13-1.03-1.86,.59-2.81,0,0,19.3-1.05,33.71-1.25,6.17-.09,12.35,.51,18.4,1.6Z"/><path class="cls-6" d="M273.75,439.44s9.03,5.59,19.46,10.39"/><path class="cls-6" d="M401.98,455.34c5.59-1.51,11.49-3.14,20.6-3.36"/><line class="cls-6" x1="272.08" y1="433.49" x2="271.63" y2="440.89"/><path class="cls-15" d="M276.15,436.75s15.02,6.42,19.65,7.45c2.18,.49,1.4,5.4,2.01,9.52,.68,4.62-1.22,3.7-1.22,3.7l-19.53-11.72-.91-8.95Z"/><polygon class="cls-15" points="419.85 448.35 398.57 451.98 396.05 462.04 419.85 455.77 419.85 448.35"/></g></g></g></g></g></g></svg>