<?xml version="1.0" encoding="UTF-8"?><svg id="Layer_2" xmlns="http://www.w3.org/2000/svg" xmlns:xlink="http://www.w3.org/1999/xlink" viewBox="0 0 701.35 701.35"><defs><style>.cls-1,.cls-2,.cls-3,.cls-4,.cls-5,.cls-6{fill:none;}.cls-2{stroke:#312f32;stroke-width:12px;}.cls-2,.cls-3,.cls-4,.cls-5,.cls-6{stroke-linecap:round;stroke-miterlimit:10;}.cls-7{fill:url(#linear-gradient);}.cls-8{clip-path:url(#clippath);}.cls-9{fill:#f7bdbc;}.cls-10{fill:#f5aa71;}.cls-11{fill:#f74100;}.cls-12{fill:#fff;}.cls-13{fill:#805433;}.cls-14{fill:#9e6341;}.cls-15{fill:#66594c;}.cls-16{fill:#33142e;}.cls-17{fill:#e16662;}.cls-18{fill:#1e1d1e;}.cls-19{fill:#1a1818;}.cls-20{fill:#312f32;}.cls-3{stroke:#f5aa71;stroke-width:16px;}.cls-4{stroke:#33142e;stroke-width:7px;}.cls-21{fill:url(#linear-gradient-2);}.cls-5{stroke:#f8ea0d;}.cls-5,.cls-6{stroke-width:11px;}.cls-6{stroke:#cc8752;}</style><clipPath id="clippath"><circle id="Clip" class="cls-1" cx="350.67" cy="350.67" r="350.67"/></clipPath><linearGradient id="linear-gradient" x1="214.91" y1="271.58" x2="335.1" y2="271.58" gradientTransform="translate(-131.47 -201.38) rotate(-9.5) scale(1.01 1.96) skewX(9.53)" gradientUnits="userSpaceOnUse"><stop offset="0" stop-color="#201f21" stop-opacity="0"/><stop offset=".45" stop-color="#312f32"/></linearGradient><linearGradient id="linear-gradient-2" x1="386.58" y1="282.95" x2="506.38" y2="282.95" gradientTransform="translate(143.99 -234.59) rotate(1.73) scale(1.07 1.78) skewX(-27.46)" gradientUnits="userSpaceOnUse"><stop offset=".65" stop-color="#312f32"/><stop offset="1" stop-color="#201f21" stop-opacity="0"/></linearGradient></defs><g id="Layer_1-2"><g><circle id="BKG" class="cls-11" cx="350.67" cy="350.67" r="350.67"/><g id="Alex"><g class="cls-8"><g id="Alex-2"><g id="HAir"><path class="cls-20" d="M623.88,461.58s.98-413.87-266.25-413.87c-251.63,0-265.86,413.87-265.86,413.87-8.4,66.14,38.32,125.17,99.06,125.17h333.98c60.74,0,107.46-59.03,99.06-125.17Z"/></g><path class="cls-18" d="M224.18,552.69v24.71l57.41-26.41s9.65-26.04,3.29-39.27-56.38-64.89-62.78-88.49c-6.4-23.6,2.08,129.46,2.08,129.46Z"/><path class="cls-18" d="M486.7,552.69v24.71l-57.41-26.41s-9.65-26.04-3.29-39.27,56.38-64.89,62.78-88.49c6.4-23.6-2.08,129.46-2.08,129.46Z"/><g id="Shirt"><path class="cls-12" d="M661.86,722.31H51.23v-2.24c0-50.73,30.4-96.52,77.15-116.2l217.45-91.57,236.02,92.65c48.27,18.95,80.01,65.52,80.01,117.37h0Z"/></g><g id="Ear"><path class="cls-13" d="M539.37,304.4l-15.46-5.17-26.09,78.05,10.38,3.47c-.43,1.31-.72,2.69-.81,4.13-.55,9.04,6.33,16.81,15.37,17.36,8.38,.51,15.66-5.37,17.12-13.42l16.69-49.95c4.77-14.27-2.93-29.71-17.2-34.48Z"/><path class="cls-5" d="M529.09,379.73c3.89,.24,6.54,8.6,5.93,18.68-.61,10.08-4.26,18.06-8.15,17.82s-6.54-8.6-5.93-18.68"/><path class="cls-13" d="M529.21,401.35s-4.19,1.04-6.45,.9c-9.04-.55-15.92-8.32-15.37-17.36l19.17,1.17,2.65,15.3Z"/></g><g id="Shine_HAir"><polygon class="cls-20" points="524.5 321.82 581.38 455.62 568.36 274.41 530.07 273.67 524.5 321.82"/><path class="cls-15" d="M550.12,252.86s-17.08-72.25-41.26-94.6c-25.27-23.36-78.51-34.68-78.51-34.68,0,0,47.2,87.22,119.77,129.28Z"/><path class="cls-15" d="M563.09,262c-17.31-66.98-62.9-124.47-123.07-159.37-15.39-8.93-3.37-44.34,16.1-34.51,66.52,33.6,107.9,103.73,133.1,174.51,36.39,102.23,40.2,201.69,40.2,201.69,8.25,64.07-43.33,125.49-103,125.49h-8.18c30.31-21.78,90.97-129.36,44.86-307.81Z"/><path class="cls-2" d="M594.58,459.67c-5.04,59.33-28.08,99.99-83.28,110.14"/></g><g id="Neck"><path class="cls-14" d="M440.7,529.74v-66.99h-168.31v66.99c0,14.32-9.03,27.14-21.7,32.12-6.93,2.73-11.63,9.22-11.63,16.67v.32c0,21.83,36.42,85.29,117.49,85.29s117.49-62.87,117.49-85.29h0c0-7.99-4.88-15.17-12.31-18.12-12.32-4.9-21.03-16.93-21.03-30.99Z"/></g><path id="Face" class="cls-10" d="M474.02,475.29s-48.75,73.7-123.35,73.7-126.63-88.91-126.63-88.91c-20.53-27.16-31.62-60.29-31.57-94.34l.12-82.24c.04-27.29,16.05-51.93,40.83-63.38,80.98-37.42,137.27-103.47,137.27-103.47,0,0,71.13,79.74,128.02,120.18,20.43,14.52,31.33,38.99,28.33,63.87l-10.23,84.77c-4.08,33.8-19.1,65.34-42.78,89.81Z"/><g id="Left_Eye"><path class="cls-12" d="M320.06,322.94s-.84,2.63-3.43,2.7c-11.65,.33-15.24,1.76-33.93,3.52-20.82,1.96-32.72-16.7-32.72-16.7,0,0,18.01-9.12,37.37-6.23,19.36,2.89,32.72,16.7,32.72,16.7Z"/><path class="cls-19" d="M270.35,306.37c-1.23,2.4-1.99,5.09-2.17,7.96-.33,5.39,1.49,10.42,4.72,14.25,3,.66,6.27,.93,9.79,.6,11.44-1.08,17.22-2.03,22.66-2.69,1.82-2.82,2.96-6.12,3.18-9.7,.05-.89,.04-1.78-.02-2.65-5.54-3.34-12.79-6.64-21.17-7.89-5.95-.89-11.78-.64-16.99,.13Z"/><path class="cls-19" d="M325.19,325.05c.46-.05,.69-.59,.4-.95-3.22-4-17.24-20.91-36-26.65-8.51-2.6-21.76-2.27-27.88-.78-9.89,2.41-20.15,3.97-29.03-.24-1-.48-2.08,.48-1.71,1.53h0c3.85,10.46,13.41,13.99,19.88,16,.15,.05,.31,.03,.45-.05,1.79-.96,14.46-7.42,30.73-6.43,1.48,.09,2.97,.24,4.47,.47,18.14,2.71,33.48,15.64,35.33,17.26,.12,.11,.28,.16,.44,.14l2.91-.3Z"/><circle class="cls-12" cx="296.75" cy="313.7" r="4.13"/></g><g id="Right_Eye"><path class="cls-12" d="M395.3,328.41s.52,2.71,3.08,3.1c11.52,1.74,14.91,3.6,33.26,7.61,20.43,4.47,34.51-12.61,34.51-12.61,0,0-16.77-11.24-36.34-10.71-19.56,.53-34.51,12.61-34.51,12.61Z"/><path class="cls-19" d="M446.66,317.98c.93,2.53,1.36,5.3,1.19,8.16-.33,5.39-2.75,10.16-6.41,13.57-3.06,.29-6.33,.16-9.79-.59-11.22-2.46-16.85-4.1-22.16-5.41-1.46-3.02-2.19-6.43-1.98-10.02,.05-.89,.17-1.77,.34-2.63,5.9-2.64,13.5-5.04,21.97-5.27,6.02-.16,11.77,.79,16.85,2.19Z"/><path class="cls-19" d="M389.95,329.88c-.45-.1-.61-.67-.28-.99,3.68-3.58,19.65-18.67,38.96-22.08,8.76-1.55,21.88,.38,27.77,2.6,9.52,3.59,19.52,6.38,28.85,3.28,1.05-.35,2.01,.73,1.51,1.72h0c-5.09,9.92-15,12.26-21.68,13.47-.16,.03-.31,0-.44-.1-1.66-1.17-13.45-9.12-29.72-10.11-1.48-.09-2.97-.12-4.49-.08-18.33,.49-35.13,11.47-37.16,12.84-.13,.09-.3,.12-.46,.08l-2.86-.65Z"/><circle class="cls-12" cx="436.2" cy="323.08" r="4.13"/></g><path id="Left_Eyebrow" class="cls-7" d="M335.98,279.78v-9.22c.16-3.54-1.86-7.73-4.1-8.47-15.23-5.03-66.21-20.36-97.47-11.3-11.67,3.38-18.61,13.62-21.87,19.84-.49,.93,.48,2.92,1.18,2.43,7.86-5.43,27.81-16.83,45.38-7.09,21.78,12.07,52.3,18.95,73.67,18.76,1.81-.02,3.06-1.93,3.21-4.96Z"/><path id="Right_Eyebrow" class="cls-21" d="M385.03,280.06l1.74-9.7c.4-3.41,3.07-7.04,5.38-7.33,15.74-1.99,68.2-7.18,97.36,7.26,10.89,5.39,16.03,16.46,18.21,23.01,.33,.98-.94,2.7-1.55,2.1-6.82-6.64-24.52-21.22-43.32-15.18-23.31,7.49-54.57,9.31-75.48,5.17-1.77-.35-2.68-2.41-2.34-5.33Z"/><path id="Nose" class="cls-6" d="M391.21,394.24l-.78,12.82c-.32,5.32-4.9,9.37-10.22,9.05l-7.34-.45-9.69,5.12c-7.15,3.78-15.82,3.19-22.4-1.51,0,0-8.51-6.08-8.51-6.08l-6.63-.4c-5.32-.32-9.37-4.9-9.05-10.22l.78-12.82"/><path class="cls-6" d="M340.69,308.28l1.23,4.68c2.56,9.72,2.4,19.87-.33,29.39"/><path class="cls-6" d="M378.52,304.81l-1.51,4.6c-3.15,9.55-3.61,19.69-1.45,29.35"/><ellipse class="cls-9" cx="354.96" cy="391.72" rx="5.77" ry="11.74" transform="translate(-57.6 722.23) rotate(-86.52)"/><line class="cls-3" x1="370.2" y1="129.28" x2="372.74" y2="87.55"/><g id="Mouth"><path class="cls-17" d="M361.73,497.15l-25.22-1.59c-25.73-1.57-63.38-52.72-63.38-52.72-.94-2.99,1.04-6.21,3.72-6.05l146.58,8.92c2.4,.15,3.98,2.96,3.22,5.72,0,0-39.72,47.26-64.92,45.72Z"/><path class="cls-12" d="M422.99,450.55l-149.27-10.5,19.88,12.74s10.28,23.7,55.68,26.46c40.02,2.44,41.28-15.85,52.6-21.78,11.32-5.93,24.62-3.43,24.62-3.43,.78-2.99-1.09-3.34-3.51-3.49Z"/><path id="Lip_-_Top" class="cls-17" d="M328.25,437.1l23.36,4.24,19.46-1.41c7.1-.51,14.33-.32,21.41,.76,11.05,1.68,33.47,7.11,33.47,7.11,1.9,1.06,.78,3.07-1.62,2.92l-45.62,2.22c-6.5-.4-13.01-.28-19.41,.34l-3.98,.38c-4.42,.43-8.96,.18-13.31-.74l-6.05-1.27c-5.87-1.23-11.87-2.04-17.91-2.4l-42.49-9.7c-2.2-.13-1.03-1.86,.59-2.81,0,0,19.3-1.05,33.71-1.25,6.17-.09,12.35,.51,18.4,1.6Z"/><path class="cls-4" d="M273.75,439.44s9.03,5.59,19.46,10.39"/><path class="cls-4" d="M401.98,455.34c5.59-1.51,11.49-3.14,20.6-3.36"/><line class="cls-4" x1="272.08" y1="433.49" x2="271.63" y2="440.89"/><path class="cls-16" d="M276.15,436.75s15.02,6.42,19.65,7.45c2.18,.49,1.4,5.4,2.01,9.52,.68,4.62-1.22,3.7-1.22,3.7l-19.53-11.72-.91-8.95Z"/><polygon class="cls-16" points="419.85 448.35 398.57 451.98 396.05 462.04 419.85 455.77 419.85 448.35"/></g><path class="cls-20" d="M210.1,116.99l5.24,465.68s-61.4,11.01-84.67-23.26S210.1,116.99,210.1,116.99Z"/></g></g></g></g></g></svg>